<svg width="120" height="120" viewBox="0 0 120 120" fill="none" xmlns="http://www.w3.org/2000/svg">
  <rect width="120" height="120" rx="28" fill="#F5F3EC"/>
  <rect x="22" y="24" width="52" height="72" rx="10" fill="#2B3952"/>
  <rect x="30" y="34" width="36" height="16" rx="4" fill="#74C163"/>
  <rect x="32" y="57" width="8" height="8" rx="2" fill="#D9E3EF"/>
  <rect x="44" y="57" width="8" height="8" rx="2" fill="#D9E3EF"/>
  <rect x="56" y="57" width="8" height="8" rx="2" fill="#D9E3EF"/>
  <rect x="32" y="69" width="8" height="8" rx="2" fill="#D9E3EF"/>
  <rect x="44" y="69" width="8" height="8" rx="2" fill="#D9E3EF"/>
  <rect x="56" y="69" width="8" height="8" rx="2" fill="#D9E3EF"/>
  <rect x="80" y="42" width="18" height="36" rx="5" fill="#E9EEF5" stroke="#B9C7D8" stroke-width="3"/>
  <circle cx="89" cy="69" r="3" fill="#0D8FC8"/>
  <path d="M74 58C79 56 83 55 88 55" stroke="#0D8FC8" stroke-width="4" stroke-linecap="round"/>
</svg>
